<mxfile host="65bd71144e">
    <diagram id="yrAIs954T6zfqzeUiARS" name="Page-1">
        <mxGraphModel dx="528" dy="565" grid="1" gridSize="10" guides="1" tooltips="1" connect="1" arrows="1" fold="1" page="1" pageScale="1" pageWidth="850" pageHeight="1100" background="none" math="0" shadow="0">
            <root>
                <mxCell id="0"/>
                <mxCell id="1" parent="0"/>
                <mxCell id="-5KZdRByPbmMDSF_PC5L-4" value="" style="edgeStyle=orthogonalEdgeStyle;rounded=1;orthogonalLoop=1;jettySize=auto;html=1;curved=1;" parent="1" source="-5KZdRByPbmMDSF_PC5L-1" target="-5KZdRByPbmMDSF_PC5L-3" edge="1">
                    <mxGeometry relative="1" as="geometry"/>
                </mxCell>
                <mxCell id="-5KZdRByPbmMDSF_PC5L-1" value="Event&lt;br&gt;&lt;br&gt;id&amp;nbsp;&lt;br&gt;details&lt;br&gt;guest&lt;br&gt;host&lt;br&gt;dt_created" style="whiteSpace=wrap;html=1;aspect=fixed;fillColor=#ffff88;strokeColor=#36393d;rounded=1;" parent="1" vertex="1">
                    <mxGeometry x="70" y="127" width="180" height="180" as="geometry"/>
                </mxCell>
                <mxCell id="-5KZdRByPbmMDSF_PC5L-2" value="Issues&lt;br&gt;&lt;br&gt;Problem statement&lt;br&gt;time&lt;br&gt;is_resolved&lt;br&gt;" style="whiteSpace=wrap;html=1;aspect=fixed;fillColor=#ffff88;strokeColor=#36393d;rounded=1;" parent="1" vertex="1">
                    <mxGeometry x="500" y="127" width="180" height="180" as="geometry"/>
                </mxCell>
                <mxCell id="-5KZdRByPbmMDSF_PC5L-5" value="" style="edgeStyle=orthogonalEdgeStyle;rounded=1;orthogonalLoop=1;jettySize=auto;html=1;curved=1;" parent="1" source="-5KZdRByPbmMDSF_PC5L-3" target="-5KZdRByPbmMDSF_PC5L-2" edge="1">
                    <mxGeometry relative="1" as="geometry"/>
                </mxCell>
                <mxCell id="-5KZdRByPbmMDSF_PC5L-3" value="User&lt;br&gt;&lt;br&gt;id&lt;br&gt;Name&lt;br&gt;Bio&lt;br&gt;is_executive" style="whiteSpace=wrap;html=1;aspect=fixed;fillColor=#ffff88;strokeColor=#36393d;rounded=1;" parent="1" vertex="1">
                    <mxGeometry x="280.5" y="127" width="179" height="179" as="geometry"/>
                </mxCell>
                <mxCell id="-5KZdRByPbmMDSF_PC5L-7" value="" style="edgeStyle=orthogonalEdgeStyle;rounded=1;orthogonalLoop=1;jettySize=auto;html=1;fillColor=#e1d5e7;strokeColor=#9673a6;strokeWidth=3;curved=1;" parent="1" source="-5KZdRByPbmMDSF_PC5L-6" target="-5KZdRByPbmMDSF_PC5L-1" edge="1">
                    <mxGeometry relative="1" as="geometry">
                        <Array as="points">
                            <mxPoint x="233" y="387"/>
                            <mxPoint x="166" y="387"/>
                        </Array>
                    </mxGeometry>
                </mxCell>
                <mxCell id="-5KZdRByPbmMDSF_PC5L-29" value="" style="edgeStyle=orthogonalEdgeStyle;rounded=1;orthogonalLoop=1;jettySize=auto;html=1;fillColor=#dae8fc;strokeColor=#6c8ebf;gradientColor=#7ea6e0;strokeWidth=5;curved=1;" parent="1" source="-5KZdRByPbmMDSF_PC5L-27" target="-5KZdRByPbmMDSF_PC5L-6" edge="1">
                    <mxGeometry relative="1" as="geometry">
                        <Array as="points">
                            <mxPoint x="158" y="612"/>
                            <mxPoint x="233" y="612"/>
                        </Array>
                    </mxGeometry>
                </mxCell>
                <mxCell id="-5KZdRByPbmMDSF_PC5L-44" style="edgeStyle=orthogonalEdgeStyle;rounded=1;orthogonalLoop=1;jettySize=auto;html=1;exitX=0.75;exitY=0;exitDx=0;exitDy=0;strokeColor=#9673A6;strokeWidth=3;entryX=0.43;entryY=1.034;entryDx=0;entryDy=0;entryPerimeter=0;curved=1;" parent="1" source="-5KZdRByPbmMDSF_PC5L-6" target="-5KZdRByPbmMDSF_PC5L-3" edge="1">
                    <mxGeometry relative="1" as="geometry">
                        <mxPoint x="370" y="367" as="targetPoint"/>
                        <Array as="points">
                            <mxPoint x="263" y="367"/>
                            <mxPoint x="370" y="367"/>
                        </Array>
                    </mxGeometry>
                </mxCell>
                <mxCell id="-5KZdRByPbmMDSF_PC5L-6" value="get Event&amp;nbsp;" style="rounded=1;whiteSpace=wrap;html=1;fillColor=#f9f7ed;strokeColor=#36393d;" parent="1" vertex="1">
                    <mxGeometry x="173" y="484" width="120" height="60" as="geometry"/>
                </mxCell>
                <mxCell id="-5KZdRByPbmMDSF_PC5L-14" value="" style="edgeStyle=orthogonalEdgeStyle;rounded=1;orthogonalLoop=1;jettySize=auto;html=1;fillColor=#e1d5e7;strokeColor=#9673A6;strokeWidth=3;curved=1;" parent="1" source="-5KZdRByPbmMDSF_PC5L-13" target="-5KZdRByPbmMDSF_PC5L-3" edge="1">
                    <mxGeometry relative="1" as="geometry">
                        <Array as="points">
                            <mxPoint x="370" y="347"/>
                            <mxPoint x="370" y="347"/>
                        </Array>
                    </mxGeometry>
                </mxCell>
                <mxCell id="-5KZdRByPbmMDSF_PC5L-13" value="get Executive" style="rounded=1;whiteSpace=wrap;html=1;fillColor=#f9f7ed;strokeColor=#36393d;" parent="1" vertex="1">
                    <mxGeometry x="310" y="484" width="120" height="60" as="geometry"/>
                </mxCell>
                <mxCell id="-5KZdRByPbmMDSF_PC5L-17" value="" style="edgeStyle=orthogonalEdgeStyle;rounded=1;orthogonalLoop=1;jettySize=auto;html=1;fillColor=#e1d5e7;strokeColor=#9673A6;strokeWidth=3;curved=1;" parent="1" source="-5KZdRByPbmMDSF_PC5L-16" target="-5KZdRByPbmMDSF_PC5L-2" edge="1">
                    <mxGeometry relative="1" as="geometry"/>
                </mxCell>
                <mxCell id="-5KZdRByPbmMDSF_PC5L-19" value="" style="edgeStyle=orthogonalEdgeStyle;rounded=1;orthogonalLoop=1;jettySize=auto;html=1;strokeWidth=3;entryX=0.5;entryY=0;entryDx=0;entryDy=0;curved=1;" parent="1" source="-5KZdRByPbmMDSF_PC5L-16" edge="1">
                    <mxGeometry relative="1" as="geometry">
                        <mxPoint x="770" y="517" as="targetPoint"/>
                    </mxGeometry>
                </mxCell>
                <mxCell id="-5KZdRByPbmMDSF_PC5L-21" value="" style="edgeStyle=orthogonalEdgeStyle;rounded=1;orthogonalLoop=1;jettySize=auto;html=1;strokeWidth=3;curved=1;" parent="1" source="-5KZdRByPbmMDSF_PC5L-16" target="-5KZdRByPbmMDSF_PC5L-20" edge="1">
                    <mxGeometry relative="1" as="geometry"/>
                </mxCell>
                <mxCell id="-5KZdRByPbmMDSF_PC5L-16" value="get Issue" style="rounded=1;whiteSpace=wrap;html=1;fillColor=#f9f7ed;strokeColor=#36393d;" parent="1" vertex="1">
                    <mxGeometry x="554" y="434" width="120" height="60" as="geometry"/>
                </mxCell>
                <mxCell id="-5KZdRByPbmMDSF_PC5L-36" style="edgeStyle=orthogonalEdgeStyle;rounded=1;orthogonalLoop=1;jettySize=auto;html=1;entryX=1;entryY=0.5;entryDx=0;entryDy=0;strokeWidth=3;curved=1;" parent="1" source="-5KZdRByPbmMDSF_PC5L-18" target="-5KZdRByPbmMDSF_PC5L-28" edge="1">
                    <mxGeometry relative="1" as="geometry">
                        <mxPoint x="793" y="842" as="targetPoint"/>
                        <mxPoint x="770" y="647" as="sourcePoint"/>
                        <Array as="points">
                            <mxPoint x="790" y="832"/>
                            <mxPoint x="760" y="832"/>
                            <mxPoint x="760" y="897"/>
                        </Array>
                    </mxGeometry>
                </mxCell>
                <mxCell id="-5KZdRByPbmMDSF_PC5L-42" value="FEEDBACK" style="edgeLabel;html=1;align=center;verticalAlign=middle;resizable=0;points=[];rounded=1;" parent="-5KZdRByPbmMDSF_PC5L-36" vertex="1" connectable="0">
                    <mxGeometry x="-0.3857" y="2" relative="1" as="geometry">
                        <mxPoint x="-2" as="offset"/>
                    </mxGeometry>
                </mxCell>
                <mxCell id="-5KZdRByPbmMDSF_PC5L-18" value="is_resolved = true" style="rhombus;whiteSpace=wrap;html=1;rounded=1;fillColor=#cdeb8b;strokeColor=#36393d;" parent="1" vertex="1">
                    <mxGeometry x="710" y="470" width="120" height="130" as="geometry"/>
                </mxCell>
                <mxCell id="-5KZdRByPbmMDSF_PC5L-38" style="edgeStyle=orthogonalEdgeStyle;rounded=1;orthogonalLoop=1;jettySize=auto;html=1;entryX=1;entryY=0.5;entryDx=0;entryDy=0;strokeWidth=3;curved=1;" parent="1" source="-5KZdRByPbmMDSF_PC5L-20" target="-5KZdRByPbmMDSF_PC5L-27" edge="1">
                    <mxGeometry relative="1" as="geometry">
                        <Array as="points">
                            <mxPoint x="410" y="697"/>
                            <mxPoint x="410" y="897"/>
                        </Array>
                    </mxGeometry>
                </mxCell>
                <mxCell id="-5KZdRByPbmMDSF_PC5L-20" value="is_resolved = false" style="rhombus;whiteSpace=wrap;html=1;rounded=1;fillColor=#ffcccc;strokeColor=#36393d;" parent="1" vertex="1">
                    <mxGeometry x="530" y="564" width="120" height="118" as="geometry"/>
                </mxCell>
                <mxCell id="-5KZdRByPbmMDSF_PC5L-24" value="" style="edgeStyle=orthogonalEdgeStyle;rounded=1;orthogonalLoop=1;jettySize=auto;html=1;fillColor=#e1d5e7;strokeColor=#9673a6;strokeWidth=3;curved=1;" parent="1" source="-5KZdRByPbmMDSF_PC5L-22" target="-5KZdRByPbmMDSF_PC5L-1" edge="1">
                    <mxGeometry relative="1" as="geometry">
                        <Array as="points">
                            <mxPoint x="110" y="387"/>
                            <mxPoint x="166" y="387"/>
                        </Array>
                    </mxGeometry>
                </mxCell>
                <mxCell id="-5KZdRByPbmMDSF_PC5L-30" value="" style="edgeStyle=orthogonalEdgeStyle;rounded=1;orthogonalLoop=1;jettySize=auto;html=1;fillColor=#dae8fc;strokeColor=#6c8ebf;gradientColor=#7ea6e0;strokeWidth=5;curved=1;" parent="1" source="-5KZdRByPbmMDSF_PC5L-27" target="-5KZdRByPbmMDSF_PC5L-22" edge="1">
                    <mxGeometry relative="1" as="geometry">
                        <Array as="points">
                            <mxPoint x="158" y="612"/>
                            <mxPoint x="100" y="612"/>
                        </Array>
                    </mxGeometry>
                </mxCell>
                <mxCell id="-5KZdRByPbmMDSF_PC5L-22" value="set Event" style="ellipse;whiteSpace=wrap;html=1;aspect=fixed;fillColor=#f9f7ed;strokeColor=#36393d;rounded=1;" parent="1" vertex="1">
                    <mxGeometry x="70" y="474" width="80" height="80" as="geometry"/>
                </mxCell>
                <mxCell id="-5KZdRByPbmMDSF_PC5L-26" value="" style="edgeStyle=orthogonalEdgeStyle;rounded=1;orthogonalLoop=1;jettySize=auto;html=1;fillColor=#e1d5e7;strokeColor=#9673a6;strokeWidth=3;curved=1;" parent="1" source="-5KZdRByPbmMDSF_PC5L-25" target="-5KZdRByPbmMDSF_PC5L-3" edge="1">
                    <mxGeometry relative="1" as="geometry">
                        <Array as="points">
                            <mxPoint x="463" y="367"/>
                            <mxPoint x="370" y="367"/>
                        </Array>
                    </mxGeometry>
                </mxCell>
                <mxCell id="-5KZdRByPbmMDSF_PC5L-25" value="set Executive" style="ellipse;whiteSpace=wrap;html=1;aspect=fixed;fillColor=#f9f7ed;strokeColor=#36393d;rounded=1;" parent="1" vertex="1">
                    <mxGeometry x="450" y="474" width="80" height="80" as="geometry"/>
                </mxCell>
                <mxCell id="-5KZdRByPbmMDSF_PC5L-31" style="edgeStyle=orthogonalEdgeStyle;rounded=1;orthogonalLoop=1;jettySize=auto;html=1;entryX=0.5;entryY=1;entryDx=0;entryDy=0;fillColor=#dae8fc;strokeColor=#6C8EBF;gradientColor=#7ea6e0;strokeWidth=5;curved=1;" parent="1" source="-5KZdRByPbmMDSF_PC5L-27" target="-5KZdRByPbmMDSF_PC5L-13" edge="1">
                    <mxGeometry relative="1" as="geometry">
                        <mxPoint x="333" y="732" as="targetPoint"/>
                        <Array as="points">
                            <mxPoint x="215" y="732"/>
                            <mxPoint x="360" y="732"/>
                            <mxPoint x="360" y="544"/>
                        </Array>
                    </mxGeometry>
                </mxCell>
                <mxCell id="-5KZdRByPbmMDSF_PC5L-47" style="edgeStyle=orthogonalEdgeStyle;orthogonalLoop=1;jettySize=auto;html=1;exitX=1;exitY=0;exitDx=0;exitDy=0;entryX=0.5;entryY=1;entryDx=0;entryDy=0;strokeWidth=5;fillColor=#cce5ff;strokeColor=#6C8EBF;curved=1;" parent="1" source="-5KZdRByPbmMDSF_PC5L-27" target="-5KZdRByPbmMDSF_PC5L-46" edge="1">
                    <mxGeometry relative="1" as="geometry">
                        <Array as="points">
                            <mxPoint x="282" y="750"/>
                            <mxPoint x="710" y="750"/>
                            <mxPoint x="710" y="460"/>
                        </Array>
                    </mxGeometry>
                </mxCell>
                <mxCell id="-5KZdRByPbmMDSF_PC5L-27" value="Admin" style="ellipse;whiteSpace=wrap;html=1;fillColor=#eeeeee;strokeColor=#36393d;rounded=1;" parent="1" vertex="1">
                    <mxGeometry x="120" y="837" width="190" height="120" as="geometry"/>
                </mxCell>
                <mxCell id="-5KZdRByPbmMDSF_PC5L-37" style="edgeStyle=orthogonalEdgeStyle;rounded=1;orthogonalLoop=1;jettySize=auto;html=1;entryX=0.5;entryY=1;entryDx=0;entryDy=0;fillColor=#e51400;strokeColor=#B20000;strokeWidth=2;curved=1;" parent="1" source="-5KZdRByPbmMDSF_PC5L-28" target="-5KZdRByPbmMDSF_PC5L-16" edge="1">
                    <mxGeometry relative="1" as="geometry">
                        <Array as="points">
                            <mxPoint x="690" y="567"/>
                            <mxPoint x="614" y="567"/>
                        </Array>
                    </mxGeometry>
                </mxCell>
                <mxCell id="-5KZdRByPbmMDSF_PC5L-39" style="edgeStyle=orthogonalEdgeStyle;rounded=1;orthogonalLoop=1;jettySize=auto;html=1;entryX=0.5;entryY=1;entryDx=0;entryDy=0;fillColor=#e51400;strokeColor=#B20000;strokeWidth=2;curved=1;" parent="1" source="-5KZdRByPbmMDSF_PC5L-28" target="-5KZdRByPbmMDSF_PC5L-6" edge="1">
                    <mxGeometry relative="1" as="geometry">
                        <mxPoint x="343" y="612" as="targetPoint"/>
                        <Array as="points">
                            <mxPoint x="520" y="897"/>
                            <mxPoint x="520" y="712"/>
                            <mxPoint x="233" y="712"/>
                        </Array>
                    </mxGeometry>
                </mxCell>
                <mxCell id="-5KZdRByPbmMDSF_PC5L-40" style="edgeStyle=orthogonalEdgeStyle;rounded=1;orthogonalLoop=1;jettySize=auto;html=1;entryX=0.75;entryY=1;entryDx=0;entryDy=0;fillColor=#e51400;strokeColor=#B20000;strokeWidth=2;curved=1;" parent="1" source="-5KZdRByPbmMDSF_PC5L-28" target="-5KZdRByPbmMDSF_PC5L-13" edge="1">
                    <mxGeometry relative="1" as="geometry">
                        <Array as="points">
                            <mxPoint x="520" y="897"/>
                            <mxPoint x="520" y="614"/>
                            <mxPoint x="400" y="614"/>
                        </Array>
                    </mxGeometry>
                </mxCell>
                <mxCell id="-5KZdRByPbmMDSF_PC5L-28" value="User" style="ellipse;whiteSpace=wrap;html=1;fillColor=#eeeeee;strokeColor=#36393d;rounded=1;" parent="1" vertex="1">
                    <mxGeometry x="560" y="837" width="190" height="120" as="geometry"/>
                </mxCell>
                <mxCell id="-5KZdRByPbmMDSF_PC5L-32" value="" style="endArrow=classic;html=1;rounded=1;fillColor=#dae8fc;strokeColor=#6c8ebf;gradientColor=#7ea6e0;strokeWidth=5;curved=1;" parent="1" target="-5KZdRByPbmMDSF_PC5L-25" edge="1">
                    <mxGeometry width="50" height="50" relative="1" as="geometry">
                        <mxPoint x="360" y="647" as="sourcePoint"/>
                        <mxPoint x="463" y="672" as="targetPoint"/>
                        <Array as="points">
                            <mxPoint x="490" y="647"/>
                        </Array>
                    </mxGeometry>
                </mxCell>
                <mxCell id="-5KZdRByPbmMDSF_PC5L-48" style="edgeStyle=orthogonalEdgeStyle;orthogonalLoop=1;jettySize=auto;html=1;exitX=0.5;exitY=0;exitDx=0;exitDy=0;strokeColor=#9673A6;strokeWidth=3;curved=1;" parent="1" source="-5KZdRByPbmMDSF_PC5L-46" edge="1">
                    <mxGeometry relative="1" as="geometry">
                        <mxPoint x="590" y="310" as="targetPoint"/>
                    </mxGeometry>
                </mxCell>
                <mxCell id="-5KZdRByPbmMDSF_PC5L-46" value="set Executive" style="ellipse;whiteSpace=wrap;html=1;aspect=fixed;fillColor=#f9f7ed;strokeColor=#36393d;rounded=1;" parent="1" vertex="1">
                    <mxGeometry x="670" y="354" width="80" height="80" as="geometry"/>
                </mxCell>
            </root>
        </mxGraphModel>
    </diagram>
</mxfile>